STARTFONT 2.1
FONT -WRI-Mathematica1-Bold-R-Normal--22-220-75-75-p-130-Adobe-FontSpecific
SIZE 22 75 75
FONTBOUNDINGBOX 39 25 -3 -5
STARTPROPERTIES 16
FOUNDRY "WRI"
FAMILY_NAME "Mathematica1"
WEIGHT_NAME "Bold"
SLANT "R"
SETWIDTH_NAME "Normal"
PIXEL_SIZE 22
POINT_SIZE 220
RESOLUTION_X 75
RESOLUTION_Y 75
SPACING "p"
AVERAGE_WIDTH 130
CHARSET_REGISTRY "Adobe"
CHARSET_ENCODING "FontSpecific"
FONT_DESCENT 5
FONT_ASCENT 20
DEFAULT_CHAR 32
ENDPROPERTIES
CHARS 224
STARTCHAR Space
ENCODING 32
SWIDTH 189 0
DWIDTH 4 0
BBX 0 0 0 0
BITMAP
ENDCHAR
STARTCHAR Exclamation
ENCODING 33
SWIDTH 333 0
DWIDTH 7 0
BBX 4 15 2 0
BITMAP
60
f0
f0
f0
f0
f0
f0
60
60
60
60
00
60
f0
60
ENDCHAR
STARTCHAR ForAll
ENCODING 34
SWIDTH 627 0
DWIDTH 14 0
BBX 13 15 0 0
BITMAP
8038
4070
4070
40f0
20e0
20e0
1fc0
11c0
13c0
0b80
0b80
0700
0700
0700
0200
ENDCHAR
STARTCHAR NumberSign
ENCODING 35
SWIDTH 701 0
DWIDTH 15 0
BBX 14 15 1 0
BITMAP
0630
0630
0e70
0c60
7ffc
7ffc
0c60
1ce0
18c0
fff8
fff8
18c0
18c0
3180
3180
ENDCHAR
STARTCHAR Exists
ENCODING 36
SWIDTH 627 0
DWIDTH 14 0
BBX 12 15 1 0
BITMAP
fff0
0070
0070
0070
0070
0070
3ff0
0070
0070
0070
0070
0070
0070
0070
fff0
ENDCHAR
STARTCHAR Percent
ENCODING 37
SWIDTH 927 0
DWIDTH 20 0
BBX 18 15 1 0
BITMAP
1e0e00
310c00
611c00
c11800
c13000
c23000
c46000
78e780
00cc40
019840
01b040
033040
073080
063100
0e1e00
ENDCHAR
STARTCHAR Ampersand
ENCODING 38
SWIDTH 833 0
DWIDTH 18 0
BBX 16 15 1 0
BITMAP
07c0
0ce0
1c60
1c60
1e40
0f80
0f1f
378e
63cc
e3c8
e1f0
f0f0
f8f9
7ffe
3e1c
ENDCHAR
STARTCHAR SmallMember
ENCODING 39
SWIDTH 501 0
DWIDTH 11 0
BBX 8 10 1 0
BITMAP
fc
0e
07
07
7f
07
07
0e
1c
f8
ENDCHAR
STARTCHAR LParen
ENCODING 40
SWIDTH 349 0
DWIDTH 8 0
BBX 6 18 1 -3
BITMAP
04
08
18
30
70
60
e0
e0
e0
e0
e0
e0
60
70
30
18
08
04
ENDCHAR
STARTCHAR RParen
ENCODING 41
SWIDTH 349 0
DWIDTH 8 0
BBX 6 18 1 -3
BITMAP
80
40
60
30
38
18
1c
1c
1c
1c
1c
1c
18
38
30
60
40
80
ENDCHAR
STARTCHAR Star
ENCODING 42
SWIDTH 507 0
DWIDTH 11 0
BBX 9 10 1 0
BITMAP
0c00
0c00
cd80
eb80
7f00
7e00
eb80
cd80
0c00
0c00
ENDCHAR
STARTCHAR Plus
ENCODING 43
SWIDTH 683 0
DWIDTH 15 0
BBX 12 12 1 0
BITMAP
0600
0600
0600
0600
0600
fff0
fff0
0600
0600
0600
0600
0600
ENDCHAR
STARTCHAR Comma
ENCODING 44
SWIDTH 250 0
DWIDTH 6 0
BBX 4 8 1 -4
BITMAP
60
f0
f0
f0
30
20
40
80
ENDCHAR
STARTCHAR Minus
ENCODING 45
SWIDTH 676 0
DWIDTH 15 0
BBX 13 2 1 5
BITMAP
fff8
fff8
ENDCHAR
STARTCHAR Period
ENCODING 46
SWIDTH 250 0
DWIDTH 6 0
BBX 4 4 1 0
BITMAP
60
f0
f0
60
ENDCHAR
STARTCHAR Slash
ENCODING 47
SWIDTH 358 0
DWIDTH 8 0
BBX 8 19 0 -4
BITMAP
03
03
06
06
06
0c
0c
0c
18
18
18
30
30
30
60
60
60
c0
c0
ENDCHAR
STARTCHAR Zero
ENCODING 48
SWIDTH 500 0
DWIDTH 11 0
BBX 10 15 1 0
BITMAP
1e00
3300
6180
6180
e1c0
e1c0
e1c0
e1c0
e1c0
e1c0
e1c0
6180
6180
3300
1e00
ENDCHAR
STARTCHAR One
ENCODING 49
SWIDTH 500 0
DWIDTH 11 0
BBX 8 15 1 0
BITMAP
0c
7c
fc
1c
1c
1c
1c
1c
1c
1c
1c
1c
1c
1c
ff
ENDCHAR
STARTCHAR Two
ENCODING 50
SWIDTH 500 0
DWIDTH 11 0
BBX 10 15 0 0
BITMAP
1e00
7f00
4780
8380
0380
0380
0300
0700
0600
0c00
1040
20c0
7fc0
ff80
ff80
ENDCHAR
STARTCHAR Three
ENCODING 51
SWIDTH 500 0
DWIDTH 11 0
BBX 10 15 0 0
BITMAP
1e00
7f80
c780
0380
0300
0600
1f00
0f80
03c0
01c0
00c0
00c0
e080
f100
7e00
ENDCHAR
STARTCHAR Four
ENCODING 52
SWIDTH 500 0
DWIDTH 11 0
BBX 10 15 0 0
BITMAP
0180
0380
0780
0b80
1b80
1380
2380
4380
8380
ffc0
ffc0
0380
0380
0380
0380
ENDCHAR
STARTCHAR Five
ENCODING 53
SWIDTH 500 0
DWIDTH 11 0
BBX 9 15 1 0
BITMAP
1f80
3f80
3f00
2000
2000
3c00
7f00
7f00
0780
0180
0080
0080
e100
f200
7c00
ENDCHAR
STARTCHAR Six
ENCODING 54
SWIDTH 500 0
DWIDTH 11 0
BBX 10 15 1 0
BITMAP
01c0
0700
1c00
3800
7000
7000
ff00
e380
e1c0
e1c0
e1c0
e1c0
6180
3180
1e00
ENDCHAR
STARTCHAR Seven
ENCODING 55
SWIDTH 500 0
DWIDTH 11 0
BBX 10 15 0 0
BITMAP
7fc0
7fc0
ff80
c180
8380
0300
0300
0300
0600
0600
0600
0c00
0c00
0c00
1800
ENDCHAR
STARTCHAR Eight
ENCODING 56
SWIDTH 500 0
DWIDTH 11 0
BBX 10 15 1 0
BITMAP
1f00
6380
e1c0
e1c0
f180
ff00
7e00
1f00
3f80
63c0
e1c0
e1c0
e1c0
7380
3e00
ENDCHAR
STARTCHAR Nine
ENCODING 57
SWIDTH 500 0
DWIDTH 11 0
BBX 10 15 1 0
BITMAP
1e00
7300
6180
e1c0
e1c0
e1c0
e1c0
71c0
3fc0
0380
0380
0700
0e00
3800
e000
ENDCHAR
STARTCHAR Colon
ENCODING 58
SWIDTH 333 0
DWIDTH 7 0
BBX 4 10 2 0
BITMAP
60
f0
f0
60
00
00
60
f0
f0
60
ENDCHAR
STARTCHAR SemiColon
ENCODING 59
SWIDTH 333 0
DWIDTH 7 0
BBX 4 14 2 -4
BITMAP
60
f0
f0
60
00
00
60
f0
f0
70
10
20
20
40
ENDCHAR
STARTCHAR Less
ENCODING 60
SWIDTH 681 0
DWIDTH 15 0
BBX 13 13 1 -1
BITMAP
0008
0038
00f8
07c0
1f00
7c00
f000
7c00
1f00
07c0
00f8
0038
0008
ENDCHAR
STARTCHAR Equal
ENCODING 61
SWIDTH 677 0
DWIDTH 15 0
BBX 13 7 1 2
BITMAP
fff8
fff8
0000
0000
0000
fff8
fff8
ENDCHAR
STARTCHAR Greater
ENCODING 62
SWIDTH 681 0
DWIDTH 15 0
BBX 13 13 1 -1
BITMAP
8000
e000
f800
1f00
07c0
01f0
0078
01f0
07c0
1f00
f800
e000
8000
ENDCHAR
STARTCHAR Question
ENCODING 63
SWIDTH 500 0
DWIDTH 11 0
BBX 9 15 1 0
BITMAP
3e00
4700
c380
e380
e380
0700
0600
0800
0800
0000
0000
1800
3c00
3c00
1800
ENDCHAR
STARTCHAR TildeFullEqual
ENCODING 64
SWIDTH 675 0
DWIDTH 15 0
BBX 13 12 1 -1
BITMAP
3c08
7f18
c7f0
81e0
0000
0000
fff8
fff8
0000
0000
fff8
fff8
ENDCHAR
STARTCHAR CapAlpha
ENCODING 65
SWIDTH 760 0
DWIDTH 17 0
BBX 16 15 1 0
BITMAP
0100
0380
0380
0380
07c0
05c0
0de0
08e0
08f0
1ff0
1070
1038
2038
603c
f07f
ENDCHAR
STARTCHAR CapBeta
ENCODING 66
SWIDTH 658 0
DWIDTH 14 0
BBX 13 15 0 0
BITMAP
ff80
38e0
3870
3870
3870
38e0
3f80
38e0
3870
3838
3838
3838
3838
3870
ffc0
ENDCHAR
STARTCHAR CapChi
ENCODING 67
SWIDTH 769 0
DWIDTH 17 0
BBX 16 15 0 0
BITMAP
fe3f
7c0c
3c18
1e30
0f20
07c0
0380
03c0
03e0
06e0
04f0
0878
103c
701e
f87f
ENDCHAR
STARTCHAR CapDelta
ENCODING 68
SWIDTH 677 0
DWIDTH 15 0
BBX 15 15 1 0
BITMAP
0100
0380
0380
07c0
05c0
0de0
08e0
18f0
1070
1070
2038
2038
401c
7ffc
fffe
ENDCHAR
STARTCHAR CapEpsilon
ENCODING 69
SWIDTH 634 0
DWIDTH 14 0
BBX 13 15 0 0
BITMAP
fff0
3830
3810
3800
3840
38c0
3fc0
3840
3840
3800
3800
3808
3818
3830
fff0
ENDCHAR
STARTCHAR CapPhi
ENCODING 70
SWIDTH 677 0
DWIDTH 15 0
BBX 15 15 0 0
BITMAP
0fe0
0380
0380
0fe0
3bb8
739c
e38e
e38e
e38e
739c
3bb8
0fe0
0380
0380
0fe0
ENDCHAR
STARTCHAR CapGamma
ENCODING 71
SWIDTH 592 0
DWIDTH 13 0
BBX 12 15 0 0
BITMAP
fff0
3830
3810
3800
3800
3800
3800
3800
3800
3800
3800
3800
3800
3800
fe00
ENDCHAR
STARTCHAR CapEta
ENCODING 72
SWIDTH 744 0
DWIDTH 16 0
BBX 16 15 0 0
BITMAP
fe7f
381c
381c
381c
381c
381c
381c
3ffc
381c
381c
381c
381c
381c
381c
fe7f
ENDCHAR
STARTCHAR CapIota
ENCODING 73
SWIDTH 351 0
DWIDTH 8 0
BBX 7 15 0 0
BITMAP
fe
38
38
38
38
38
38
38
38
38
38
38
38
38
fe
ENDCHAR
STARTCHAR CurlyTheta
ENCODING 74
SWIDTH 545 0
DWIDTH 12 0
BBX 12 15 1 0
BITMAP
03c0
0cc0
08e0
08e0
0ce0
06e0
1be0
71f0
f1d0
e1c0
e180
e380
e300
7600
3c00
ENDCHAR
STARTCHAR CapKappa
ENCODING 75
SWIDTH 752 0
DWIDTH 17 0
BBX 17 15 0 0
BITMAP
fe7e00
383800
383000
384000
388000
390000
3e0000
3f0000
3f8000
3bc000
39e000
38f000
387800
387e00
feff80
ENDCHAR
STARTCHAR CapLambda
ENCODING 76
SWIDTH 753 0
DWIDTH 17 0
BBX 16 15 0 0
BITMAP
0100
0380
0380
05c0
05c0
04e0
08e0
0870
0870
1038
1038
201c
201c
601e
f03f
ENDCHAR
STARTCHAR CapMu
ENCODING 77
SWIDTH 883 0
DWIDTH 19 0
BBX 19 15 0 0
BITMAP
f803e0
380380
3c0780
3c0780
3c0f80
2e0b80
2e0b80
271380
271380
27a380
23a380
23e380
21c380
21c380
f88fe0
ENDCHAR
STARTCHAR CapNu
ENCODING 78
SWIDTH 749 0
DWIDTH 16 0
BBX 15 15 1 0
BITMAP
f03e
7808
3c08
3e08
2e08
2f08
2788
23c8
21e8
20e8
2078
2078
2038
2018
f808
ENDCHAR
STARTCHAR CapOmicron
ENCODING 79
SWIDTH 733 0
DWIDTH 16 0
BBX 15 15 0 0
BITMAP
07c0
1c30
3018
701c
600c
e00e
e00e
e00e
e00e
e00e
600c
701c
3018
1870
07c0
ENDCHAR
STARTCHAR CapPi
ENCODING 80
SWIDTH 733 0
DWIDTH 16 0
BBX 16 15 0 0
BITMAP
ffff
381c
381c
381c
381c
381c
381c
381c
381c
381c
381c
381c
381c
381c
fe7f
ENDCHAR
STARTCHAR CapTheta
ENCODING 81
SWIDTH 731 0
DWIDTH 16 0
BBX 15 15 0 0
BITMAP
07c0
1c30
3018
701c
600c
e44e
e7ce
e7ce
e7ce
e44e
600c
701c
3018
1870
07c0
ENDCHAR
STARTCHAR CapRho
ENCODING 82
SWIDTH 590 0
DWIDTH 13 0
BBX 13 15 0 0
BITMAP
ffc0
38f0
3838
3838
3838
3838
38f0
3fc0
3800
3800
3800
3800
3800
3800
fe00
ENDCHAR
STARTCHAR CapSigma
ENCODING 83
SWIDTH 610 0
DWIDTH 13 0
BBX 12 15 0 0
BITMAP
7ff0
3ff0
1830
1c10
0c10
0600
0600
0300
0200
0410
0c10
1830
3ff0
7ff0
fff0
ENDCHAR
STARTCHAR CapTau
ENCODING 84
SWIDTH 620 0
DWIDTH 14 0
BBX 13 15 0 0
BITMAP
fff8
c718
8708
8708
0700
0700
0700
0700
0700
0700
0700
0700
0700
0700
1fc0
ENDCHAR
STARTCHAR CapUpsilon
ENCODING 85
SWIDTH 684 0
DWIDTH 15 0
BBX 14 15 0 0
BITMAP
6018
b064
1840
1cc0
0c80
0d80
0700
0700
0700
0700
0700
0700
0700
0700
1fc0
ENDCHAR
STARTCHAR FinalSigma
ENCODING 86
SWIDTH 513 0
DWIDTH 11 0
BBX 10 14 1 -4
BITMAP
0f80
31c0
61c0
6000
e000
e000
f000
fc00
7f00
1f80
0780
0380
0380
1e00
ENDCHAR
STARTCHAR CapOmega
ENCODING 87
SWIDTH 748 0
DWIDTH 16 0
BBX 16 15 1 0
BITMAP
07e0
0c38
181c
300c
700e
700e
700e
700e
700e
300c
1818
1818
8c31
fc3f
fe7f
ENDCHAR
STARTCHAR CapXi
ENCODING 88
SWIDTH 615 0
DWIDTH 14 0
BBX 12 15 1 0
BITMAP
fff0
fff0
fff0
c030
8010
2040
3fc0
3fc0
3fc0
2040
8010
c030
fff0
fff0
fff0
ENDCHAR
STARTCHAR CapPsi
ENCODING 89
SWIDTH 647 0
DWIDTH 14 0
BBX 13 15 0 0
BITMAP
1fc0
e738
7770
7770
7770
7770
7770
3760
1fc0
0700
0700
0700
0700
0700
1fc0
ENDCHAR
STARTCHAR CapZeta
ENCODING 90
SWIDTH 661 0
DWIDTH 15 0
BBX 14 15 0 0
BITMAP
7ff8
6078
40f0
40e0
01c0
03c0
0380
0700
0e00
1e00
1c00
3804
780c
f018
fff8
ENDCHAR
STARTCHAR LBracket
ENCODING 91
SWIDTH 359 0
DWIDTH 8 0
BBX 5 19 2 -4
BITMAP
f8
e0
e0
e0
e0
e0
e0
e0
e0
e0
e0
e0
e0
e0
e0
e0
e0
e0
f8
ENDCHAR
STARTCHAR Therefore
ENCODING 92
SWIDTH 629 0
DWIDTH 14 0
BBX 11 10 1 0
BITMAP
0e00
0e00
0e00
0000
0000
0000
0000
e0e0
e0e0
e0e0
ENDCHAR
STARTCHAR RBracket
ENCODING 93
SWIDTH 359 0
DWIDTH 8 0
BBX 5 19 1 -4
BITMAP
f8
38
38
38
38
38
38
38
38
38
38
38
38
38
38
38
38
38
f8
ENDCHAR
STARTCHAR Perpendicular
ENCODING 94
SWIDTH 752 0
DWIDTH 17 0
BBX 14 12 1 0
BITMAP
0300
0300
0300
0300
0300
0300
0300
0300
0300
0300
fffc
fffc
ENDCHAR
STARTCHAR Underbar
ENCODING 95
SWIDTH 580 0
DWIDTH 13 0
BBX 11 2 1 -3
BITMAP
ffe0
ffe0
ENDCHAR
STARTCHAR Hat
ENCODING 96
SWIDTH 371 0
DWIDTH 8 0
BBX 9 5 0 0
BITMAP
1c00
3e00
3e00
6300
c180
ENDCHAR
STARTCHAR Alpha
ENCODING 97
SWIDTH 630 0
DWIDTH 14 0
BBX 13 10 1 0
BITMAP
0f00
3998
31b0
61e0
e1c0
e1c0
e180
e310
6320
3dc0
ENDCHAR
STARTCHAR Beta
ENCODING 98
SWIDTH 569 0
DWIDTH 13 0
BBX 15 20 -2 -5
BITMAP
007c
01c6
0386
0386
0706
070c
07f0
0e38
0e1c
0e1c
1c1c
1c1c
1c38
3e30
3be0
3800
3800
7000
7000
f000
ENDCHAR
STARTCHAR Chi
ENCODING 99
SWIDTH 605 0
DWIDTH 13 0
BBX 16 15 -3 -5
BITMAP
0f01
0382
0384
0388
0390
03a0
01c0
01c0
03c0
05c0
09c0
11c0
21d0
40f0
80e0
ENDCHAR
STARTCHAR Delta
ENCODING 100
SWIDTH 505 0
DWIDTH 11 0
BBX 10 15 0 0
BITMAP
0780
0cc0
0cc0
0c00
0e00
0f00
3380
7380
6380
e380
e380
e300
e700
6600
3c00
ENDCHAR
STARTCHAR Epsilon
ENCODING 101
SWIDTH 411 0
DWIDTH 9 0
BBX 8 10 1 0
BITMAP
0f
38
70
e0
fe
e0
e0
e0
70
3f
ENDCHAR
STARTCHAR Phi
ENCODING 102
SWIDTH 590 0
DWIDTH 13 0
BBX 12 20 1 -5
BITMAP
0040
01c0
01c0
0180
0380
0fc0
1b60
3370
7770
e670
e670
e6e0
ecc0
7d80
3e00
0800
0800
1800
1000
1000
ENDCHAR
STARTCHAR Gamma
ENCODING 103
SWIDTH 589 0
DWIDTH 13 0
BBX 13 15 0 -5
BITMAP
3c38
7c30
ce70
8660
06c0
06c0
0780
0700
0600
0c00
0c00
1c00
3800
3800
3000
ENDCHAR
STARTCHAR Eta
ENCODING 104
SWIDTH 540 0
DWIDTH 12 0
BBX 12 15 1 -5
BITMAP
79e0
be60
38f0
38e0
38e0
70e0
71e0
71c0
f1c0
e1c0
0380
0380
0380
0780
0780
ENDCHAR
STARTCHAR Iota
ENCODING 105
SWIDTH 307 0
DWIDTH 7 0
BBX 5 10 1 0
BITMAP
38
38
70
70
70
e0
e0
e8
f0
e0
ENDCHAR
STARTCHAR CurlyPhi
ENCODING 106
SWIDTH 605 0
DWIDTH 13 0
BBX 12 14 0 -4
BITMAP
11e0
23f0
4310
8710
8610
8630
cc60
ffe0
7fc0
3f00
1800
1800
3800
3800
ENDCHAR
STARTCHAR Kappa
ENCODING 107
SWIDTH 475 0
DWIDTH 10 0
BBX 10 10 0 0
BITMAP
1cc0
1dc0
3a00
3a00
3c00
7c00
7e00
7e00
7700
e380
ENDCHAR
STARTCHAR Lambda
ENCODING 108
SWIDTH 523 0
DWIDTH 12 0
BBX 11 15 0 0
BITMAP
3c00
0e00
0e00
0600
0700
0700
0700
0f00
0f00
1700
3700
2700
6300
63a0
e1c0
ENDCHAR
STARTCHAR Mu
ENCODING 109
SWIDTH 569 0
DWIDTH 13 0
BBX 13 15 -1 -5
BITMAP
0e38
0e38
1c70
1c70
1c70
38f0
38e0
38e0
39e8
76f0
7000
7000
7000
e000
e000
ENDCHAR
STARTCHAR Nu
ENCODING 110
SWIDTH 473 0
DWIDTH 10 0
BBX 10 10 0 0
BITMAP
19c0
f9c0
3d80
1d80
1d00
1e00
1c00
1c00
1800
3000
ENDCHAR
STARTCHAR Omicron
ENCODING 111
SWIDTH 518 0
DWIDTH 11 0
BBX 10 10 1 0
BITMAP
0f00
3980
71c0
61c0
e1c0
e1c0
e180
e380
6700
3c00
ENDCHAR
STARTCHAR Pi
ENCODING 112
SWIDTH 556 0
DWIDTH 12 0
BBX 12 10 0 0
BITMAP
3ff0
7ff0
c780
0f80
0d80
1f00
1b00
7b80
f380
e180
ENDCHAR
STARTCHAR Theta
ENCODING 113
SWIDTH 479 0
DWIDTH 11 0
BBX 10 15 1 0
BITMAP
0780
0d80
19c0
39c0
31c0
71c0
73c0
ffc0
e380
e380
e380
e700
e600
6600
3800
ENDCHAR
STARTCHAR Rho
ENCODING 114
SWIDTH 549 0
DWIDTH 12 0
BBX 13 15 -1 -5
BITMAP
01e0
0730
0e38
0c38
1c38
1c38
1c70
3c70
3ce0
3780
3000
7000
7000
7000
e000
ENDCHAR
STARTCHAR Sigma
ENCODING 115
SWIDTH 701 0
DWIDTH 15 0
BBX 14 10 1 0
BITMAP
0ffc
39fc
71c0
61c0
e1c0
e1c0
e180
e380
6700
3c00
ENDCHAR
STARTCHAR Tau
ENCODING 116
SWIDTH 512 0
DWIDTH 11 0
BBX 11 10 0 0
BITMAP
3fe0
7fe0
8600
0e00
0c00
0c00
1c00
1c00
1e00
0c00
ENDCHAR
STARTCHAR Upsilon
ENCODING 117
SWIDTH 554 0
DWIDTH 12 0
BBX 11 10 1 0
BITMAP
7060
f8e0
38e0
78e0
70c0
f0c0
e180
e100
e200
7c00
ENDCHAR
STARTCHAR CurlyPi
ENCODING 118
SWIDTH 854 0
DWIDTH 19 0
BBX 17 10 1 0
BITMAP
3fff80
7fff80
580e00
b98e00
318e00
710e00
711c00
711c00
333800
3cf000
ENDCHAR
STARTCHAR Omega
ENCODING 119
SWIDTH 731 0
DWIDTH 16 0
BBX 15 10 1 0
BITMAP
0c08
180c
300e
718e
618e
e10e
e11c
e11c
e338
3ce0
ENDCHAR
STARTCHAR Xi
ENCODING 120
SWIDTH 477 0
DWIDTH 11 0
BBX 11 20 0 -5
BITMAP
0460
04e0
07c0
0c00
1800
3800
3800
38c0
0fc0
3800
6000
e000
e000
fe00
7f00
0100
0100
0100
1200
3c00
ENDCHAR
STARTCHAR Psi
ENCODING 121
SWIDTH 648 0
DWIDTH 14 0
BBX 14 20 1 -5
BITMAP
01c0
01c0
0180
0380
0380
e31c
7338
7738
7670
f670
ec70
ece0
ece0
69c0
3f00
1800
1000
1000
3000
2000
ENDCHAR
STARTCHAR Zeta
ENCODING 122
SWIDTH 453 0
DWIDTH 10 0
BBX 11 20 0 -5
BITMAP
08e0
09e0
0f80
0200
0400
0800
1800
3000
3000
7000
6000
e000
e000
fe00
7f00
0100
0100
0100
2200
7c00
ENDCHAR
STARTCHAR LBrace
ENCODING 123
SWIDTH 372 0
DWIDTH 8 0
BBX 6 19 1 -4
BITMAP
0c
18
30
30
30
30
30
30
30
c0
30
30
30
30
30
30
30
18
0c
ENDCHAR
STARTCHAR VertBar
ENCODING 124
SWIDTH 220 0
DWIDTH 5 0
BBX 2 15 1 0
BITMAP
c0
c0
c0
c0
c0
c0
c0
c0
c0
c0
c0
c0
c0
c0
c0
ENDCHAR
STARTCHAR RBrace
ENCODING 125
SWIDTH 372 0
DWIDTH 8 0
BBX 6 19 1 -4
BITMAP
c0
60
30
30
30
30
30
30
30
0c
30
30
30
30
30
30
30
60
c0
ENDCHAR
STARTCHAR Tilde
ENCODING 126
SWIDTH 667 0
DWIDTH 15 0
BBX 13 4 1 4
BITMAP
3c08
7f18
c7f0
81e0
ENDCHAR
STARTCHAR DEL
ENCODING 127
SWIDTH 189 0
DWIDTH 4 0
BBX 0 0 0 0
BITMAP
ENDCHAR
STARTCHAR FractionBarExt
ENCODING 128
SWIDTH 165 0
DWIDTH 4 0
BBX 4 2 0 5
BITMAP
f0
f0
ENDCHAR
STARTCHAR EscapeChar
ENCODING 129
SWIDTH 297 0
DWIDTH 7 0
BBX 5 12 1 -2
BITMAP
f8
f8
00
00
00
f8
f8
00
00
00
f8
f8
ENDCHAR
STARTCHAR SelectPlaceholder
ENCODING 130
SWIDTH 595 0
DWIDTH 13 0
BBX 10 10 1 0
BITMAP
ffc0
ffc0
ffc0
ffc0
ffc0
ffc0
ffc0
ffc0
ffc0
ffc0
ENDCHAR
STARTCHAR Placeholder
ENCODING 131
SWIDTH 589 0
DWIDTH 13 0
BBX 10 10 1 0
BITMAP
ffc0
8040
8040
8040
8040
8040
8040
8040
8040
ffc0
ENDCHAR
STARTCHAR Continuation
ENCODING 132
SWIDTH 533 0
DWIDTH 12 0
BBX 10 14 1 0
BITMAP
c000
c000
0000
0000
0000
0000
0c00
0c00
0000
0000
0000
0000
00c0
00c0
ENDCHAR
STARTCHAR Skeleton
ENCODING 133
SWIDTH 372 0
DWIDTH 8 0
BBX 6 4 1 3
BITMAP
fc
fc
fc
fc
ENDCHAR
STARTCHAR LSkeleton
ENCODING 134
SWIDTH 1000 0
DWIDTH 22 0
BBX 19 11 2 0
BITMAP
002020
00e0e0
078780
1e1e00
787800
c0c000
787800
1e1e00
078780
00e0e0
002020
ENDCHAR
STARTCHAR RSkeleton
ENCODING 135
SWIDTH 1000 0
DWIDTH 22 0
BBX 19 11 1 0
BITMAP
808000
e0e000
3c3c00
0f0f00
03c3c0
006060
03c3c0
0f0f00
3c3c00
e0e000
808000
ENDCHAR
STARTCHAR Spacer
ENCODING 136
SWIDTH 250 0
DWIDTH 6 0
BBX 6 3 0 -3
BITMAP
84
84
fc
ENDCHAR
STARTCHAR Cross
ENCODING 137
SWIDTH 522 0
DWIDTH 11 0
BBX 9 9 1 1
BITMAP
c100
e380
7700
3e00
1c00
3e00
7700
e380
c180
ENDCHAR
STARTCHAR DblEqual
ENCODING 138
SWIDTH 856 0
DWIDTH 19 0
BBX 17 7 1 2
BITMAP
ff7f80
ff7f80
000000
000000
000000
ff7f80
ff7f80
ENDCHAR
STARTCHAR Grave
ENCODING 139
SWIDTH 262 0
DWIDTH 6 0
BBX 6 5 0 1
BITMAP
c0
e0
70
18
0c
ENDCHAR
STARTCHAR Acute
ENCODING 140
SWIDTH 262 0
DWIDTH 6 0
BBX 6 5 0 1
BITMAP
0c
1c
38
60
c0
ENDCHAR
STARTCHAR DoubleAcute
ENCODING 141
SWIDTH 467 0
DWIDTH 10 0
BBX 11 5 0 1
BITMAP
c600
e700
7380
18c0
0c60
ENDCHAR
STARTCHAR OverTilde
ENCODING 142
SWIDTH 357 0
DWIDTH 8 0
BBX 8 3 0 1
BITMAP
79
7f
8e
ENDCHAR
STARTCHAR OverBar
ENCODING 143
SWIDTH 352 0
DWIDTH 8 0
BBX 8 2 0 1
BITMAP
ff
ff
ENDCHAR
STARTCHAR DblUpDownArrow
ENCODING 144
SWIDTH 726 0
DWIDTH 16 0
BBX 13 23 1 -3
BITMAP
0200
0700
0f80
1dc0
38e0
78f0
d8d8
18c0
18c0
18c0
18c0
18c0
18c0
18c0
18c0
18c0
d8d8
78f0
38e0
1dc0
0f80
0700
0200
ENDCHAR
STARTCHAR DblUpExtens1
ENCODING 145
SWIDTH 726 0
DWIDTH 16 0
BBX 7 8 4 0
BITMAP
c6
c6
c6
c6
c6
c6
c6
c6
ENDCHAR
STARTCHAR DblLongLArrow
ENCODING 146
SWIDTH 1426 0
DWIDTH 31 0
BBX 29 13 1 -1
BITMAP
02000000
06000000
0c000000
1ffffff8
3ffffff8
70000000
e0000000
70000000
3ffffff8
1ffffff8
0c000000
06000000
02000000
ENDCHAR
STARTCHAR DblExtens
ENCODING 147
SWIDTH 488 0
DWIDTH 11 0
BBX 9 7 1 2
BITMAP
ff80
ff80
0000
0000
0000
ff80
ff80
ENDCHAR
STARTCHAR DblLongRArrow
ENCODING 148
SWIDTH 1426 0
DWIDTH 31 0
BBX 29 13 1 -1
BITMAP
00000200
00000300
00000180
ffffffc0
ffffffe0
00000070
00000038
00000070
ffffffe0
ffffffc0
00000180
00000300
00000200
ENDCHAR
STARTCHAR DblLRArrow2
ENCODING 149
SWIDTH 1165 0
DWIDTH 26 0
BBX 24 13 1 -1
BITMAP
020040
060060
0c0030
1ffff8
3ffffc
70000e
e00007
70000e
3ffffc
1ffff8
0c0030
060060
020040
ENDCHAR
STARTCHAR DblLongLRArrow
ENCODING 150
SWIDTH 1659 0
DWIDTH 37 0
BBX 35 13 1 -1
BITMAP
0200000800
0600000c00
0c00000600
1fffffff00
3fffffff80
70000001c0
e0000000e0
70000001c0
3fffffff80
1fffffff00
0c00000600
0600000c00
0200000800
ENDCHAR
STARTCHAR UpDownArrow
ENCODING 151
SWIDTH 591 0
DWIDTH 13 0
BBX 10 20 1 0
BITMAP
0c00
1e00
3f00
7f80
edc0
ccc0
0c00
0c00
0c00
0c00
0c00
0c00
0c00
0c00
ccc0
edc0
7f80
3f00
1e00
0c00
ENDCHAR
STARTCHAR LongLArrow
ENCODING 152
SWIDTH 1422 0
DWIDTH 31 0
BBX 29 10 1 1
BITMAP
0c000000
1c000000
38000000
70000000
fffffff8
fffffff8
70000000
38000000
1c000000
0c000000
ENDCHAR
STARTCHAR LongRArrow
ENCODING 153
SWIDTH 1430 0
DWIDTH 31 0
BBX 29 10 1 1
BITMAP
00000180
000001c0
000000e0
00000070
fffffff8
fffffff8
00000070
000000e0
000001c0
00000180
ENDCHAR
STARTCHAR LongLRArrow
ENCODING 154
SWIDTH 1660 0
DWIDTH 37 0
BBX 34 10 1 1
BITMAP
0c00000c00
1c00000e00
3800000700
7000000380
ffffffffc0
ffffffffc0
7000000380
3800000700
1c00000e00
0c00000c00
ENDCHAR
STARTCHAR ColonEqual
ENCODING 155
SWIDTH 916 0
DWIDTH 20 0
BBX 17 9 1 1
BITMAP
e00000
e7ff80
e7ff80
000000
000000
000000
e7ff80
e7ff80
e00000
ENDCHAR
STARTCHAR Diamond2
ENCODING 156
SWIDTH 512 0
DWIDTH 11 0
BBX 9 9 1 2
BITMAP
0800
1c00
3600
6300
c180
6300
3600
1c00
0800
ENDCHAR
STARTCHAR NotSquareSprsetEqual
ENCODING 157
SWIDTH 697 0
DWIDTH 15 0
BBX 13 16 1 -3
BITMAP
ff80
ffe0
0070
0030
0018
0018
0018
0018
0030
0070
ffe0
ff80
0000
0000
fff0
fff0
ENDCHAR
STARTCHAR AtSign
ENCODING 158
SWIDTH 743 0
DWIDTH 16 0
BBX 14 14 1 -1
BITMAP
07c0
1c30
3008
63ec
6ee4
cc64
d8e4
d8c4
d8c8
d9c8
6e70
2000
1830
07c0
ENDCHAR
STARTCHAR Solidmedsqr
ENCODING 159
SWIDTH 519 0
DWIDTH 11 0
BBX 9 9 1 2
BITMAP
ff80
ff80
ff80
ff80
ff80
ff80
ff80
ff80
ff80
ENDCHAR
STARTCHAR OverDot
ENCODING 160
SWIDTH 140 0
DWIDTH 3 0
BBX 4 4 0 1
BITMAP
60
f0
f0
60
ENDCHAR
STARTCHAR CurlyCapUpsilon
ENCODING 161
SWIDTH 671 0
DWIDTH 15 0
BBX 14 15 1 0
BITMAP
f038
38cc
0c8c
0d9c
0718
0700
0700
0700
0700
0700
0700
0700
0700
0700
1fc0
ENDCHAR
STARTCHAR Prime
ENCODING 162
SWIDTH 373 0
DWIDTH 8 0
BBX 6 9 1 1
BITMAP
18
3c
3c
38
70
70
60
c0
c0
ENDCHAR
STARTCHAR LessEqual
ENCODING 163
SWIDTH 677 0
DWIDTH 15 0
BBX 13 12 1 0
BITMAP
0018
00f8
07e0
3e00
f000
3e00
07e0
00f8
0018
0000
fff8
fff8
ENDCHAR
STARTCHAR Fraction
ENCODING 164
SWIDTH 595 0
DWIDTH 13 0
BBX 13 16 0 -1
BITMAP
0038
0030
0060
00e0
00c0
0180
0380
0300
0600
0e00
0c00
1800
3800
3000
6000
e000
ENDCHAR
STARTCHAR Infinity
ENCODING 165
SWIDTH 893 0
DWIDTH 20 0
BBX 18 8 1 1
BITMAP
1e0f00
671f80
c3b1c0
c1c0c0
c0e0c0
e370c0
7e3980
3c1f00
ENDCHAR
STARTCHAR RuleDelayed
ENCODING 166
SWIDTH 822 0
DWIDTH 18 0
BBX 15 10 1 1
BITMAP
e020
e030
e018
000c
0ffe
0ffe
000c
e018
e030
e020
ENDCHAR
STARTCHAR ClubSuit
ENCODING 167
SWIDTH 618 0
DWIDTH 14 0
BBX 11 12 1 0
BITMAP
0e00
1f00
1f00
1f00
1f00
7fc0
ffe0
ffe0
ffe0
ffe0
7dc0
0e00
ENDCHAR
STARTCHAR DiamondSuit
ENCODING 168
SWIDTH 587 0
DWIDTH 13 0
BBX 11 13 1 0
BITMAP
0400
0e00
0a00
1100
3180
60c0
c060
60c0
3180
1100
0a00
0e00
0400
ENDCHAR
STARTCHAR HeartSuit
ENCODING 169
SWIDTH 645 0
DWIDTH 14 0
BBX 13 13 1 -1
BITMAP
3de0
7ff0
c718
c018
c018
4018
6030
3060
18c0
0d80
0700
0200
0200
ENDCHAR
STARTCHAR SpadeSuit
ENCODING 170
SWIDTH 582 0
DWIDTH 13 0
BBX 11 13 1 0
BITMAP
0400
0400
0e00
1f00
3f80
7fc0
7fc0
ffe0
ffe0
ffe0
ffe0
7fc0
0e00
ENDCHAR
STARTCHAR LRArrow
ENCODING 171
SWIDTH 1028 0
DWIDTH 23 0
BBX 20 10 1 1
BITMAP
0c0300
1c0380
3801c0
7000e0
fffff0
fffff0
7000e0
3801c0
1c0380
0c0300
ENDCHAR
STARTCHAR LArrow
ENCODING 172
SWIDTH 870 0
DWIDTH 19 0
BBX 17 10 1 1
BITMAP
0c0000
1c0000
380000
700000
ffff80
ffff80
700000
380000
1c0000
0c0000
ENDCHAR
STARTCHAR UpArrow
ENCODING 173
SWIDTH 590 0
DWIDTH 13 0
BBX 10 16 1 0
BITMAP
0c00
1e00
3f00
7f80
edc0
ccc0
0c00
0c00
0c00
0c00
0c00
0c00
0c00
0c00
0c00
0c00
ENDCHAR
STARTCHAR RArrow
ENCODING 174
SWIDTH 870 0
DWIDTH 19 0
BBX 17 10 1 1
BITMAP
001800
001c00
000e00
000700
ffff80
ffff80
000700
000e00
001c00
001800
ENDCHAR
STARTCHAR DownArrow
ENCODING 175
SWIDTH 590 0
DWIDTH 13 0
BBX 10 16 1 0
BITMAP
0c00
0c00
0c00
0c00
0c00
0c00
0c00
0c00
0c00
0c00
ccc0
edc0
7f80
3f00
1e00
0c00
ENDCHAR
STARTCHAR Degree
ENCODING 176
SWIDTH 404 0
DWIDTH 9 0
BBX 7 7 1 9
BITMAP
38
44
82
82
82
44
38
ENDCHAR
STARTCHAR PlusMinus
ENCODING 177
SWIDTH 683 0
DWIDTH 15 0
BBX 12 13 1 0
BITMAP
0600
0600
0600
0600
fff0
fff0
0600
0600
0600
0600
0000
fff0
fff0
ENDCHAR
STARTCHAR DoublePrime
ENCODING 178
SWIDTH 651 0
DWIDTH 14 0
BBX 12 9 2 1
BITMAP
1860
3cf0
3cf0
39e0
71c0
7380
6300
c700
c600
ENDCHAR
STARTCHAR GreaterEqual
ENCODING 179
SWIDTH 677 0
DWIDTH 15 0
BBX 13 12 1 0
BITMAP
c000
f800
3f00
03e0
0078
03e0
3f00
f800
c000
0000
fff8
fff8
ENDCHAR
STARTCHAR Multiply
ENCODING 180
SWIDTH 642 0
DWIDTH 14 0
BBX 11 11 2 0
BITMAP
c060
e0e0
71c0
3b80
1f00
0e00
1f00
3b80
71c0
e0e0
c060
ENDCHAR
STARTCHAR Proportional
ENCODING 181
SWIDTH 715 0
DWIDTH 16 0
BBX 14 9 1 0
BITMAP
3e1c
6720
4340
c1c0
c180
c1c0
e2c0
7e64
3838
ENDCHAR
STARTCHAR PartialDiff
ENCODING 182
SWIDTH 558 0
DWIDTH 12 0
BBX 11 15 0 0
BITMAP
0780
08c0
1840
1c60
0060
0f60
38e0
30e0
70e0
e0c0
e0c0
e1c0
e180
7300
3c00
ENDCHAR
STARTCHAR Bullet
ENCODING 183
SWIDTH 354 0
DWIDTH 8 0
BBX 6 6 1 3
BITMAP
78
fc
fc
fc
fc
78
ENDCHAR
STARTCHAR Divide
ENCODING 184
SWIDTH 676 0
DWIDTH 15 0
BBX 12 14 1 -1
BITMAP
0700
0700
0700
0000
0000
0000
fff0
fff0
0000
0000
0000
0700
0700
0700
ENDCHAR
STARTCHAR NotEqual
ENCODING 185
SWIDTH 677 0
DWIDTH 15 0
BBX 13 15 1 -2
BITMAP
00c0
0180
0180
0180
fff8
fff8
0300
0600
0600
fff8
fff8
0c00
0c00
1800
1800
ENDCHAR
STARTCHAR Equivalence
ENCODING 186
SWIDTH 677 0
DWIDTH 15 0
BBX 13 10 1 0
BITMAP
fff8
fff8
0000
0000
fff8
fff8
0000
0000
fff8
fff8
ENDCHAR
STARTCHAR Approxequal
ENCODING 187
SWIDTH 667 0
DWIDTH 15 0
BBX 13 9 1 1
BITMAP
3c08
7f18
c7f0
81e0
0000
3c08
7f18
c7f0
81e0
ENDCHAR
STARTCHAR Ellipsis
ENCODING 188
SWIDTH 1000 0
DWIDTH 22 0
BBX 17 3 2 0
BITMAP
e1c380
e1c380
e1c380
ENDCHAR
STARTCHAR ArrowVertEx
ENCODING 189
SWIDTH 590 0
DWIDTH 13 0
BBX 2 8 5 0
BITMAP
c0
c0
c0
c0
c0
c0
c0
c0
ENDCHAR
STARTCHAR ArrowHorizEx
ENCODING 190
SWIDTH 364 0
DWIDTH 8 0
BBX 9 2 0 5
BITMAP
ff80
ff80
ENDCHAR
STARTCHAR CarriageReturn
ENCODING 191
SWIDTH 628 0
DWIDTH 14 0
BBX 12 15 1 0
BITMAP
0010
0010
0010
0010
0010
0010
0810
1010
2010
4010
fff0
4000
2000
1000
0800
ENDCHAR
STARTCHAR Aleph
ENCODING 192
SWIDTH 666 0
DWIDTH 15 0
BBX 13 16 1 0
BITMAP
4020
c060
e070
f078
f838
7cd0
3e80
3f80
4fc0
47e0
c3f0
e1f0
f0f0
f070
7030
7020
ENDCHAR
STARTCHAR IFraktur
ENCODING 193
SWIDTH 355 0
DWIDTH 8 0
BBX 7 16 0 -1
BITMAP
fe
0c
38
38
38
38
38
38
38
38
38
38
38
30
7e
1c
ENDCHAR
STARTCHAR RFraktur
ENCODING 194
SWIDTH 727 0
DWIDTH 16 0
BBX 15 15 0 0
BITMAP
0fc0
3ff0
cc78
1c38
1c38
1c70
1ce0
1fe0
1ce0
1cf0
1c70
1878
1838
7f3e
1c18
ENDCHAR
STARTCHAR Weierstrass
ENCODING 195
SWIDTH 666 0
DWIDTH 15 0
BBX 13 15 1 -4
BITMAP
00e0
19f0
7278
c438
c838
d038
e038
e670
7660
74e0
bb80
9800
9800
9800
7000
ENDCHAR
STARTCHAR CircleMultiply
ENCODING 196
SWIDTH 835 0
DWIDTH 18 0
BBX 16 16 1 -2
BITMAP
07e0
1ff8
3c3c
781e
7c3e
ee77
c7e3
c3c3
c3c3
c7e3
ee77
7c3e
781e
3c3c
1ff8
07e0
ENDCHAR
STARTCHAR CirclePlus
ENCODING 197
SWIDTH 835 0
DWIDTH 18 0
BBX 16 16 1 -2
BITMAP
07e0
1ff8
39bc
718e
6186
e187
c183
ffff
ffff
c183
c183
6186
718e
399c
1ff8
07e0
ENDCHAR
STARTCHAR EmptySet
ENCODING 198
SWIDTH 764 0
DWIDTH 17 0
BBX 15 20 1 -3
BITMAP
0060
00e0
0fc0
18f0
30f8
71dc
618c
e18e
e18e
e38e
e30e
e30e
630c
771c
3618
1e30
07c0
0600
0c00
0c00
ENDCHAR
STARTCHAR Union
ENCODING 199
SWIDTH 747 0
DWIDTH 16 0
BBX 12 15 2 0
BITMAP
c030
c030
c030
c030
c030
c030
c030
c030
c030
c030
c030
e070
70e0
3fc0
0f00
ENDCHAR
STARTCHAR Intersection
ENCODING 200
SWIDTH 747 0
DWIDTH 16 0
BBX 12 15 2 0
BITMAP
0f00
3fc0
70e0
6060
c030
c030
c030
c030
c030
c030
c030
c030
c030
c030
c030
ENDCHAR
STARTCHAR ProperSuperset
ENCODING 201
SWIDTH 697 0
DWIDTH 15 0
BBX 13 12 1 -1
BITMAP
ff80
ffe0
0070
0030
0018
0018
0018
0018
0030
0070
ffe0
ff80
ENDCHAR
STARTCHAR NbSpace
ENCODING 202
SWIDTH 189 0
DWIDTH 4 0
BBX 0 0 0 0
BITMAP
ENDCHAR
STARTCHAR NotSubset
ENCODING 203
SWIDTH 697 0
DWIDTH 15 0
BBX 13 17 1 -4
BITMAP
00c0
0180
0ff8
3ff8
7300
6300
c300
c300
c600
c600
6600
7c00
3ff8
1ff8
0c00
1800
1800
ENDCHAR
STARTCHAR ProperSubset
ENCODING 204
SWIDTH 697 0
DWIDTH 15 0
BBX 13 12 1 -1
BITMAP
0ff8
3ff8
7000
6000
c000
c000
c000
c000
6000
7000
3ff8
0ff8
ENDCHAR
STARTCHAR ReflexSubset
ENCODING 205
SWIDTH 697 0
DWIDTH 15 0
BBX 13 16 1 -3
BITMAP
0ff8
3ff8
7000
6000
c000
c000
c000
c000
6000
7000
3ff8
0ff8
0000
0000
7ff8
7ff8
ENDCHAR
STARTCHAR Element
ENCODING 206
SWIDTH 697 0
DWIDTH 15 0
BBX 13 12 1 -1
BITMAP
0ff8
3ff8
7000
6000
c000
fff8
fff8
c000
6000
7000
3ff8
0ff8
ENDCHAR
STARTCHAR NotElement
ENCODING 207
SWIDTH 697 0
DWIDTH 15 0
BBX 13 17 1 -4
BITMAP
00c0
0180
0ff8
3ff8
7300
6300
c300
fff8
fff8
c600
6600
7600
3ff8
1ff8
0c00
1800
1800
ENDCHAR
STARTCHAR Angle
ENCODING 208
SWIDTH 512 0
DWIDTH 11 0
BBX 9 12 1 0
BITMAP
0c00
1c00
1800
1800
3800
3000
3000
7000
6000
6000
ff80
ff80
ENDCHAR
STARTCHAR Gradient
ENCODING 209
SWIDTH 719 0
DWIDTH 16 0
BBX 15 15 1 0
BITMAP
fffe
7ffc
7004
3808
3808
1c10
1c10
1e30
0e20
0f60
0740
07c0
0380
0380
0100
ENDCHAR
STARTCHAR RegTM
ENCODING 210
SWIDTH 786 0
DWIDTH 17 0
BBX 16 16 1 -1
BITMAP
07e0
1ff8
3c3c
700e
6fe6
e637
c633
c623
c7c3
c663
e677
6f3e
700e
3c3c
1ff8
07e0
ENDCHAR
STARTCHAR Copyright
ENCODING 211
SWIDTH 786 0
DWIDTH 17 0
BBX 16 16 1 -1
BITMAP
07e0
1ff8
3c3c
700e
63c6
e667
cc23
cc03
cc03
cc03
e627
63c6
700e
3c3c
1ff8
07e0
ENDCHAR
STARTCHAR TM
ENCODING 212
SWIDTH 1110 0
DWIDTH 24 0
BBX 22 9 1 6
BITMAP
ff783c
993838
182c78
182c58
1826d8
182698
182398
182398
3c713c
ENDCHAR
STARTCHAR Product
ENCODING 213
SWIDTH 801 0
DWIDTH 18 0
BBX 14 17 2 0
BITMAP
fffc
7038
7038
7038
7038
7038
7038
7038
7038
7038
7038
7038
7038
7038
7038
7038
f87c
ENDCHAR
STARTCHAR Radical
ENCODING 214
SWIDTH 813 0
DWIDTH 18 0
BBX 15 22 1 -4
BITMAP
0006
000e
000c
000c
000c
001c
0018
0018
0818
7c38
fc30
1e30
0e30
0f20
0760
07e0
03e0
03c0
01c0
01c0
00c0
0080
ENDCHAR
STARTCHAR DotMath
ENCODING 215
SWIDTH 279 0
DWIDTH 6 0
BBX 3 3 1 4
BITMAP
e0
e0
e0
ENDCHAR
STARTCHAR LogicalNot
ENCODING 216
SWIDTH 680 0
DWIDTH 15 0
BBX 12 7 1 1
BITMAP
fff0
fff0
0030
0030
0030
0030
0030
ENDCHAR
STARTCHAR Wedge
ENCODING 217
SWIDTH 669 0
DWIDTH 15 0
BBX 13 15 1 0
BITMAP
0200
0700
0700
0700
0d80
0d80
1dc0
18c0
18c0
3060
3060
7070
6030
6030
c018
ENDCHAR
STARTCHAR Vee
ENCODING 218
SWIDTH 669 0
DWIDTH 15 0
BBX 13 15 1 0
BITMAP
c018
6030
6030
7070
3060
3060
18c0
18c0
1dc0
0d80
0d80
0700
0700
0700
0200
ENDCHAR
STARTCHAR DblLRArrow
ENCODING 219
SWIDTH 1165 0
DWIDTH 26 0
BBX 24 13 1 -1
BITMAP
020040
060060
0c0030
1ffff8
3ffffc
70000e
e00007
70000e
3ffffc
1ffff8
0c0030
060060
020040
ENDCHAR
STARTCHAR DblLArrow
ENCODING 220
SWIDTH 870 0
DWIDTH 19 0
BBX 17 13 1 -1
BITMAP
020000
060000
0c0000
1fff80
3fff80
700000
e00000
700000
3fff80
1fff80
0c0000
060000
020000
ENDCHAR
STARTCHAR DblUpArrow
ENCODING 221
SWIDTH 726 0
DWIDTH 16 0
BBX 13 16 1 0
BITMAP
0200
0700
0f80
1dc0
38e0
78f0
d8d8
18c0
18c0
18c0
18c0
18c0
18c0
18c0
18c0
18c0
ENDCHAR
STARTCHAR DblRArrow
ENCODING 222
SWIDTH 870 0
DWIDTH 19 0
BBX 17 13 1 -1
BITMAP
002000
003000
001800
fffc00
fffe00
000700
000380
000700
fffe00
fffc00
001800
003000
002000
ENDCHAR
STARTCHAR DblDownArrow
ENCODING 223
SWIDTH 726 0
DWIDTH 16 0
BBX 13 16 1 0
BITMAP
18c0
18c0
18c0
18c0
18c0
18c0
18c0
18c0
18c0
d8d8
78f0
38e0
1dc0
0f80
0700
0200
ENDCHAR
STARTCHAR Lozenge
ENCODING 224
SWIDTH 512 0
DWIDTH 11 0
BBX 9 9 1 2
BITMAP
0800
1c00
3600
6300
c180
6300
3600
1c00
0800
ENDCHAR
STARTCHAR LAngle
ENCODING 225
SWIDTH 398 0
DWIDTH 9 0
BBX 6 19 1 -4
BITMAP
04
0c
08
18
10
30
20
60
60
c0
60
60
20
30
10
18
08
0c
04
ENDCHAR
STARTCHAR Diffd
ENCODING 226
SWIDTH 653 0
DWIDTH 14 0
BBX 16 15 0 0
BITMAP
001f
007a
003a
003a
0074
0774
1cf4
38f4
70e8
70e8
e1e8
e1d0
e3d4
e5d8
79f0
ENDCHAR
STARTCHAR Expe
ENCODING 227
SWIDTH 572 0
DWIDTH 13 0
BBX 11 10 1 0
BITMAP
07c0
1b20
2c20
5cc0
df00
b800
b800
b840
bc80
7f00
ENDCHAR
STARTCHAR Imagi
ENCODING 228
SWIDTH 366 0
DWIDTH 8 0
BBX 7 15 1 0
BITMAP
1c
1c
1c
00
00
3e
f2
72
74
74
e4
e8
ea
ec
f0
ENDCHAR
STARTCHAR Sum
ENCODING 229
SWIDTH 749 0
DWIDTH 16 0
BBX 13 16 2 0
BITMAP
7ff0
3830
1c10
0c10
0e00
0700
0300
0380
0300
0200
0408
0808
1818
3ff8
7ff8
fff8
ENDCHAR
STARTCHAR LParenTop
ENCODING 230
SWIDTH 421 0
DWIDTH 9 0
BBX 8 19 1 -2
BITMAP
01
02
0c
08
18
30
30
70
70
60
60
e0
e0
e0
e0
e0
e0
e0
e0
ENDCHAR
STARTCHAR LParenEx
ENCODING 231
SWIDTH 421 0
DWIDTH 9 0
BBX 3 9 1 -1
BITMAP
e0
e0
e0
e0
e0
e0
e0
e0
e0
ENDCHAR
STARTCHAR LParenBot
ENCODING 232
SWIDTH 421 0
DWIDTH 9 0
BBX 8 19 1 0
BITMAP
e0
e0
e0
e0
e0
e0
e0
e0
60
60
70
30
30
30
18
08
0c
02
01
ENDCHAR
STARTCHAR LBracketTop
ENCODING 233
SWIDTH 389 0
DWIDTH 9 0
BBX 6 4 2 -1
BITMAP
fc
e0
e0
e0
ENDCHAR
STARTCHAR LBracketEx
ENCODING 234
SWIDTH 389 0
DWIDTH 9 0
BBX 3 9 2 -1
BITMAP
e0
e0
e0
e0
e0
e0
e0
e0
e0
ENDCHAR
STARTCHAR LBracketBot
ENCODING 235
SWIDTH 389 0
DWIDTH 9 0
BBX 6 3 2 0
BITMAP
e0
e0
fc
ENDCHAR
STARTCHAR LBraceTop
ENCODING 236
SWIDTH 597 0
DWIDTH 13 0
BBX 7 16 5 -2
BITMAP
02
0c
18
30
30
70
70
60
60
e0
e0
e0
e0
e0
e0
e0
ENDCHAR
STARTCHAR LBraceMid
ENCODING 237
SWIDTH 597 0
DWIDTH 13 0
BBX 7 17 1 -3
BITMAP
0e
0e
0e
0e
1c
1c
38
70
e0
70
38
1c
1c
0e
0e
0e
0e
ENDCHAR
STARTCHAR LBraceBot
ENCODING 238
SWIDTH 597 0
DWIDTH 13 0
BBX 7 16 5 0
BITMAP
e0
e0
e0
e0
e0
e0
e0
60
60
70
70
30
30
18
0c
02
ENDCHAR
STARTCHAR BraceEx
ENCODING 239
SWIDTH 597 0
DWIDTH 13 0
BBX 3 9 5 -1
BITMAP
e0
e0
e0
e0
e0
e0
e0
e0
e0
ENDCHAR
STARTCHAR Slot
ENCODING 240
SWIDTH 710 0
DWIDTH 16 0
BBX 15 15 0 0
BITMAP
1830
1830
1830
fffe
fffe
1830
1830
1830
1830
1830
fffe
fffe
1830
1830
1830
ENDCHAR
STARTCHAR RAngle
ENCODING 241
SWIDTH 398 0
DWIDTH 9 0
BBX 6 19 2 -4
BITMAP
80
40
40
60
20
30
10
18
18
0c
18
18
10
30
20
60
40
c0
80
ENDCHAR
STARTCHAR Intergral
ENCODING 242
SWIDTH 702 0
DWIDTH 15 0
BBX 12 22 2 -2
BITMAP
00e0
0170
0330
0200
0600
0600
0600
0600
0600
0600
0600
0600
0600
0600
0600
0600
0600
0600
0400
cc00
c800
7000
ENDCHAR
STARTCHAR IntegralTop
ENCODING 243
SWIDTH 1013 0
DWIDTH 22 0
BBX 18 22 2 -2
BITMAP
0003c0
0003c0
0003c0
0003c0
0003c0
0003c0
0003c0
0003c0
000380
000380
000780
000780
000780
000700
000700
000e00
e00e00
f00c00
f81c00
f83800
786000
1f8000
ENDCHAR
STARTCHAR IntegralEx
ENCODING 244
SWIDTH 1013 0
DWIDTH 22 0
BBX 4 15 16 -1
BITMAP
f0
f0
f0
f0
f0
f0
f0
f0
f0
f0
f0
f0
f0
f0
f0
ENDCHAR
STARTCHAR IntegralBot
ENCODING 245
SWIDTH 1013 0
DWIDTH 22 0
BBX 18 22 16 -2
BITMAP
007e00
018780
0707c0
0e07c0
0c03c0
1c01c0
1c0000
380000
380000
780000
780000
780000
700000
700000
f00000
f00000
f00000
f00000
f00000
f00000
f00000
f00000
ENDCHAR
STARTCHAR RParenTop
ENCODING 246
SWIDTH 421 0
DWIDTH 9 0
BBX 8 19 0 -2
BITMAP
80
40
30
10
18
0c
0c
0c
0e
06
06
07
07
07
07
07
07
07
07
ENDCHAR
STARTCHAR RParenEx
ENCODING 247
SWIDTH 421 0
DWIDTH 9 0
BBX 3 9 5 -1
BITMAP
e0
e0
e0
e0
e0
e0
e0
e0
e0
ENDCHAR
STARTCHAR RParenBot
ENCODING 248
SWIDTH 421 0
DWIDTH 9 0
BBX 8 19 0 0
BITMAP
07
07
07
07
07
07
07
07
06
06
0e
0c
0c
0c
18
10
30
40
80
ENDCHAR
STARTCHAR RBracketTop
ENCODING 249
SWIDTH 389 0
DWIDTH 9 0
BBX 6 4 1 -1
BITMAP
fc
1c
1c
1c
ENDCHAR
STARTCHAR RBracketEx
ENCODING 250
SWIDTH 389 0
DWIDTH 9 0
BBX 3 9 4 -1
BITMAP
e0
e0
e0
e0
e0
e0
e0
e0
e0
ENDCHAR
STARTCHAR RBracketBot
ENCODING 251
SWIDTH 389 0
DWIDTH 9 0
BBX 6 3 1 0
BITMAP
1c
1c
fc
ENDCHAR
STARTCHAR RBraceTop
ENCODING 252
SWIDTH 597 0
DWIDTH 13 0
BBX 7 16 1 -2
BITMAP
80
60
30
18
18
1c
1c
0c
0c
0e
0e
0e
0e
0e
0e
0e
ENDCHAR
STARTCHAR RBraceMid
ENCODING 253
SWIDTH 597 0
DWIDTH 13 0
BBX 7 17 5 -3
BITMAP
e0
e0
e0
e0
70
70
38
1c
0e
1c
38
70
70
e0
e0
e0
e0
ENDCHAR
STARTCHAR RBraceBot
ENCODING 254
SWIDTH 597 0
DWIDTH 13 0
BBX 7 16 1 0
BITMAP
0e
0e
0e
0e
0e
0e
0e
0c
0c
1c
1c
18
18
30
60
80
ENDCHAR
STARTCHAR Wolf
ENCODING 255
SWIDTH 965 0
DWIDTH 21 0
BBX 19 18 0 -4
BITMAP
008400
00cc00
00d800
00e800
01e800
01a800
011800
030800
020400
067200
047900
0c0080
098040
1bffe0
104000
30c000
60c000
c0e000
ENDCHAR
ENDFONT
